<svg width="91" height="21" viewBox="0 0 91 21" fill="none" xmlns="http://www.w3.org/2000/svg">
<path d="M3.75967 9.4014V20.7337H0V6.3253H3.52469L3.75967 9.4014ZM3.21139 13.0235H2.19314C2.19314 11.9581 2.32804 10.9994 2.59783 10.1471C2.86762 9.28599 3.2462 8.55358 3.73356 7.9499C4.22093 7.33735 4.79968 6.87127 5.4698 6.55168C6.14863 6.22321 6.90579 6.05897 7.74127 6.05897C8.4027 6.05897 9.00755 6.15663 9.55584 6.35193C10.1041 6.54724 10.5741 6.85796 10.9657 7.28408C11.366 7.71021 11.6707 8.27394 11.8795 8.97527C12.0971 9.6766 12.2059 10.5333 12.2059 11.5453V20.7337H8.4201V11.532C8.4201 10.8928 8.33307 10.3957 8.15901 10.0406C7.98495 9.68548 7.72822 9.43691 7.3888 9.29486C7.05809 9.14394 6.64905 9.06848 6.16169 9.06848C5.65692 9.06848 5.21742 9.17058 4.84319 9.37476C4.47767 9.57895 4.17306 9.86303 3.92938 10.227C3.6944 10.5821 3.51599 10.9994 3.39415 11.4788C3.27231 11.9581 3.21139 12.4731 3.21139 13.0235Z" fill="#454547"/>
<path d="M21.2621 21C20.1655 21 19.1821 20.8224 18.3118 20.4673C17.4415 20.1034 16.7017 19.6018 16.0925 18.9626C15.492 18.3234 15.0308 17.5821 14.7088 16.7387C14.3868 15.8865 14.2258 14.981 14.2258 14.0222V13.4895C14.2258 12.3976 14.3781 11.3989 14.6827 10.4933C14.9873 9.58782 15.4224 8.80216 15.9881 8.13633C16.5625 7.47051 17.2587 6.96005 18.0768 6.60495C18.8949 6.24096 19.8174 6.05897 20.8444 6.05897C21.8452 6.05897 22.7329 6.22765 23.5075 6.565C24.282 6.90235 24.9304 7.38174 25.4526 8.00317C25.9834 8.6246 26.3838 9.37032 26.6536 10.2403C26.9234 11.1015 27.0583 12.0602 27.0583 13.1167V14.7146H15.8315V12.1579H23.3639V11.8649C23.3639 11.3323 23.2681 10.8573 23.0767 10.4401C22.8939 10.014 22.6154 9.6766 22.2412 9.42803C21.8669 9.17945 21.3883 9.05517 20.8052 9.05517C20.3091 9.05517 19.8827 9.16614 19.5259 9.38808C19.169 9.61002 18.8775 9.92074 18.6512 10.3202C18.4336 10.7197 18.2683 11.1902 18.1551 11.7318C18.0507 12.2644 17.9985 12.8503 17.9985 13.4895V14.0222C17.9985 14.5992 18.0768 15.1319 18.2335 15.6202C18.3988 16.1084 18.6295 16.5301 18.9254 16.8852C19.23 17.2403 19.5955 17.5155 20.0219 17.7108C20.4571 17.9062 20.9488 18.0038 21.4971 18.0038C22.1759 18.0038 22.8069 17.8706 23.39 17.6043C23.9818 17.3291 24.4909 16.9163 24.9173 16.3659L26.7449 18.39C26.449 18.825 26.0444 19.2422 25.5309 19.6417C25.0261 20.0412 24.4169 20.3697 23.7033 20.6271C22.9896 20.8757 22.1759 21 21.2621 21Z" fill="#454547"/>
<path d="M28.9025 13.676V13.3963C28.9025 12.3399 29.0504 11.3678 29.3463 10.48C29.6422 9.58339 30.073 8.80659 30.6387 8.14965C31.2044 7.49271 31.9007 6.98224 32.7274 6.61826C33.5542 6.2454 34.5028 6.05897 35.5733 6.05897C36.6438 6.05897 37.5967 6.2454 38.4322 6.61826C39.2677 6.98224 39.9683 7.49271 40.534 8.14965C41.1084 8.80659 41.5435 9.58339 41.8394 10.48C42.1353 11.3678 42.2833 12.3399 42.2833 13.3963V13.676C42.2833 14.7235 42.1353 15.6956 41.8394 16.5923C41.5435 17.48 41.1084 18.2568 40.534 18.9226C39.9683 19.5796 39.2721 20.09 38.4453 20.454C37.6185 20.818 36.6699 21 35.5994 21C34.5289 21 33.576 20.818 32.7405 20.454C31.9137 20.09 31.2131 19.5796 30.6387 18.9226C30.073 18.2568 29.6422 17.48 29.3463 16.5923C29.0504 15.6956 28.9025 14.7235 28.9025 13.676ZM32.6622 13.3963V13.676C32.6622 14.2796 32.7144 14.8434 32.8188 15.3672C32.9233 15.8909 33.0886 16.3526 33.3149 16.7521C33.5499 17.1427 33.8545 17.449 34.2287 17.6709C34.6029 17.8928 35.0598 18.0038 35.5994 18.0038C36.1216 18.0038 36.5698 17.8928 36.944 17.6709C37.3182 17.449 37.6185 17.1427 37.8448 16.7521C38.071 16.3526 38.2364 15.8909 38.3408 15.3672C38.454 14.8434 38.5105 14.2796 38.5105 13.676V13.3963C38.5105 12.8104 38.454 12.26 38.3408 11.7451C38.2364 11.2213 38.0667 10.7597 37.8317 10.3602C37.6054 9.95181 37.3052 9.63221 36.931 9.4014C36.5567 9.17058 36.1042 9.05517 35.5733 9.05517C35.0424 9.05517 34.5899 9.17058 34.2156 9.4014C33.8501 9.63221 33.5499 9.95181 33.3149 10.3602C33.0886 10.7597 32.9233 11.2213 32.8188 11.7451C32.7144 12.26 32.6622 12.8104 32.6622 13.3963Z" fill="#454547"/>
<path d="M52.2307 16.7521C52.2307 16.4769 52.1524 16.2283 51.9958 16.0063C51.8391 15.7844 51.5476 15.5802 51.1211 15.3938C50.7034 15.1985 50.0985 15.0209 49.3066 14.8611C48.5929 14.7013 47.9271 14.5016 47.3092 14.2619C46.7 14.0133 46.1691 13.7159 45.7166 13.3697C45.2727 13.0235 44.9246 12.6151 44.6722 12.1446C44.4198 11.6652 44.2937 11.1192 44.2937 10.5067C44.2937 9.90298 44.4198 9.33481 44.6722 8.80216C44.9333 8.2695 45.3032 7.79899 45.7819 7.39062C46.2692 6.97337 46.861 6.64933 47.5573 6.41852C48.2622 6.17882 49.0542 6.05897 49.9332 6.05897C51.1603 6.05897 52.2133 6.25872 53.0923 6.65821C53.98 7.0577 54.6589 7.60812 55.1288 8.30945C55.6075 9.0019 55.8468 9.79201 55.8468 10.6798H52.0871C52.0871 10.3069 52.0088 9.974 51.8522 9.68104C51.7042 9.3792 51.4692 9.14394 51.1472 8.97527C50.8339 8.79772 50.4249 8.70894 49.9201 8.70894C49.5024 8.70894 49.1412 8.7844 48.8366 8.93532C48.532 9.07736 48.297 9.27267 48.1317 9.52124C47.975 9.76094 47.8967 10.0273 47.8967 10.3202C47.8967 10.5422 47.9402 10.7419 48.0272 10.9195C48.123 11.0881 48.2753 11.2435 48.4841 11.3855C48.693 11.5276 48.9628 11.6607 49.2935 11.785C49.6329 11.9004 50.0507 12.007 50.5467 12.1046C51.565 12.3177 52.4744 12.5973 53.2751 12.9436C54.0758 13.2809 54.7111 13.7425 55.181 14.3285C55.651 14.9055 55.886 15.6646 55.886 16.6056C55.886 17.2448 55.7467 17.8307 55.4682 18.3633C55.1897 18.896 54.7894 19.3621 54.2672 19.7616C53.7451 20.1522 53.1184 20.4585 52.3874 20.6804C51.665 20.8935 50.8513 21 49.9462 21C48.6321 21 47.5181 20.7603 46.6043 20.2809C45.6992 19.8015 45.0116 19.1934 44.5417 18.4566C44.0804 17.7108 43.8498 16.9474 43.8498 16.1661H47.4137C47.4311 16.6899 47.5616 17.1116 47.8053 17.4312C48.0577 17.7508 48.3753 17.9816 48.7583 18.1237C49.1499 18.2657 49.572 18.3367 50.0245 18.3367C50.5119 18.3367 50.9166 18.2701 51.2386 18.137C51.5606 17.9949 51.8043 17.8085 51.9697 17.5777C52.1437 17.338 52.2307 17.0628 52.2307 16.7521Z" fill="#454547"/>
<path d="M57.7267 13.676V13.3963C57.7267 12.3399 57.8746 11.3678 58.1705 10.48C58.4664 9.58339 58.8972 8.80659 59.4629 8.14965C60.0286 7.49271 60.7248 6.98224 61.5516 6.61826C62.3784 6.2454 63.327 6.05897 64.3975 6.05897C65.4679 6.05897 66.4209 6.2454 67.2564 6.61826C68.0919 6.98224 68.7925 7.49271 69.3581 8.14965C69.9325 8.80659 70.3677 9.58339 70.6636 10.48C70.9595 11.3678 71.1074 12.3399 71.1074 13.3963V13.676C71.1074 14.7235 70.9595 15.6956 70.6636 16.5923C70.3677 17.48 69.9325 18.2568 69.3581 18.9226C68.7925 19.5796 68.0962 20.09 67.2694 20.454C66.4427 20.818 65.494 21 64.4236 21C63.3531 21 62.4001 20.818 61.5647 20.454C60.7379 20.09 60.0373 19.5796 59.4629 18.9226C58.8972 18.2568 58.4664 17.48 58.1705 16.5923C57.8746 15.6956 57.7267 14.7235 57.7267 13.676ZM61.4863 13.3963V13.676C61.4863 14.2796 61.5385 14.8434 61.643 15.3672C61.7474 15.8909 61.9128 16.3526 62.139 16.7521C62.374 17.1427 62.6786 17.449 63.0529 17.6709C63.4271 17.8928 63.884 18.0038 64.4236 18.0038C64.9457 18.0038 65.394 17.8928 65.7682 17.6709C66.1424 17.449 66.4427 17.1427 66.6689 16.7521C66.8952 16.3526 67.0606 15.8909 67.165 15.3672C67.2781 14.8434 67.3347 14.2796 67.3347 13.676V13.3963C67.3347 12.8104 67.2781 12.26 67.165 11.7451C67.0606 11.2213 66.8909 10.7597 66.6559 10.3602C66.4296 9.95181 66.1293 9.63221 65.7551 9.4014C65.3809 9.17058 64.9283 9.05517 64.3975 9.05517C63.8666 9.05517 63.414 9.17058 63.0398 9.4014C62.6743 9.63221 62.374 9.95181 62.139 10.3602C61.9128 10.7597 61.7474 11.2213 61.643 11.7451C61.5385 12.26 61.4863 12.8104 61.4863 13.3963Z" fill="#454547"/>
<path d="M77.9052 20.7337H74.1194V5.04692C74.1194 3.95498 74.3283 3.03614 74.7461 2.29042C75.1725 1.53583 75.7687 0.96766 76.5345 0.585923C77.3091 0.195308 78.2272 0 79.289 0C79.6371 0 79.9722 0.0266328 80.2942 0.0798985C80.6162 0.124287 80.9295 0.181991 81.2341 0.253012L81.1949 3.14268C81.0296 3.09829 80.8555 3.06722 80.6728 3.04946C80.49 3.03171 80.2768 3.02283 80.0331 3.02283C79.5805 3.02283 79.1933 3.10273 78.8713 3.26252C78.5579 3.41344 78.3186 3.63982 78.1533 3.94166C77.9879 4.2435 77.9052 4.61192 77.9052 5.04692V20.7337ZM80.725 6.3253V9.04185H72.0177V6.3253H80.725Z" fill="#58585a"/>
<path d="M90.8303 6.3253V9.04185H82.606V6.3253H90.8303ZM84.6425 2.76982H88.4022V16.3925C88.4022 16.8098 88.4544 17.1294 88.5588 17.3513C88.672 17.5732 88.8373 17.7286 89.0549 17.8174C89.2725 17.8973 89.5466 17.9372 89.8773 17.9372C90.1123 17.9372 90.3212 17.9283 90.5039 17.9106C90.6954 17.884 90.8564 17.8573 90.9869 17.8307L91 20.6538C90.678 20.7603 90.3299 20.8446 89.9556 20.9068C89.5814 20.9689 89.168 21 88.7155 21C87.8887 21 87.1664 20.8624 86.5484 20.5872C85.9392 20.3031 85.4693 19.8503 85.1386 19.2289C84.8079 18.6075 84.6425 17.7907 84.6425 16.7787V2.76982Z" fill="#58585a"/>
</svg>
